<svg width="219" height="221" viewBox="0 0 219 221" fill="none" xmlns="http://www.w3.org/2000/svg">
<path d="M213.663 92.4404H104.224V216.199H213.663V92.4404Z" fill="white"/>
<path d="M213.679 216.573H104.24C104.036 216.573 103.865 216.404 103.865 216.2V92.4414C103.865 92.2379 104.036 92.0684 104.24 92.0684H213.679C213.884 92.0684 214.054 92.2379 214.054 92.4414V216.2C214.054 216.404 213.884 216.573 213.679 216.573ZM104.615 215.827H213.304V92.8144H104.615V215.827Z" fill="#053C5A"/>
<path d="M206.298 67.0588H55.6402L39.2073 95.612L218.367 96.0698L206.298 67.0588Z" fill="#053C5A"/>
<path d="M124.645 55.1064H7.17676V216.201H124.645V55.1064Z" fill="white"/>
<path d="M124.645 216.574H94.8471C94.6426 216.574 94.4721 216.405 94.4721 216.201C94.4721 215.998 94.6426 215.828 94.8471 215.828H124.27V55.4794H7.55156V120.165C7.55156 120.368 7.3811 120.538 7.17654 120.538C6.97198 120.538 6.80151 120.368 6.80151 120.165V55.1064C6.80151 54.903 6.97198 54.7334 7.17654 54.7334H124.645C124.849 54.7334 125.02 54.903 125.02 55.1064V216.201C125.02 216.405 124.849 216.574 124.645 216.574Z" fill="#053C5A"/>
<path d="M6.89296 202.45C6.59232 202.45 6.3418 202.092 6.3418 201.661L6.64243 114.853C6.64243 114.423 6.89296 114.064 7.19359 114.064C7.49422 114.064 7.74475 114.423 7.74475 114.853L7.44412 201.661C7.44412 202.11 7.19359 202.45 6.89296 202.45Z" fill="#053C5A"/>
<path d="M124.252 62.2782H7.56836L65.9018 8.86816L124.252 62.2782Z" fill="white"/>
<path d="M65.9021 8.8677L122.599 60.7687H131.821L65.9021 0.423828L0 60.7687H9.2222L65.9021 8.8677Z" fill="#053C5A"/>
<path d="M69.3962 40.217H62.4071C46.8777 40.217 34.2803 52.7472 34.2803 68.1937V73.8569H97.5231V68.1937C97.5231 52.7472 84.9427 40.217 69.3962 40.217Z" fill="white"/>
<path d="M97.5231 74.2462H34.2803C34.0757 74.2462 33.9053 74.0767 33.9053 73.8732V68.2101C33.9053 52.577 46.6902 39.8604 62.4072 39.8604H69.3963C85.1132 39.8604 97.8982 52.577 97.8982 68.2101V73.8732C97.8982 74.0767 97.7448 74.2462 97.5231 74.2462ZM34.6724 73.5002H97.1481V68.2101C97.1481 52.984 84.7041 40.6064 69.3963 40.6064H62.4072C47.0993 40.6064 34.6553 52.984 34.6553 68.2101V73.5002H34.6724Z" fill="#053C5A"/>
<path d="M27.8613 137.915H17.5652V201.532H27.8613V137.915Z" fill="white"/>
<path d="M107.265 137.915H96.9685V201.532H107.265V137.915Z" fill="white"/>
<path d="M97.4724 79.0459H34.2637V104.92H97.4724V79.0459Z" fill="white"/>
<path d="M97.4724 105.293H34.2637C34.0591 105.293 33.8887 105.124 33.8887 104.92V79.0459C33.8887 78.8424 34.0591 78.6729 34.2637 78.6729H97.4724C97.677 78.6729 97.8475 78.8424 97.8475 79.0459V104.92C97.8645 105.124 97.6941 105.293 97.4724 105.293ZM34.6387 104.547H97.0974V79.4189H34.6387V104.547Z" fill="#053C5A"/>
<path d="M131.571 202.548V220.326H0.25V202.548H131.571Z" fill="white" stroke="#053C5A" stroke-width="0.5"/>
<path d="M108.126 202.264C107.922 202.264 107.751 202.077 107.751 201.857V139.138H18.5313V201.314C18.5313 201.535 18.3608 201.721 18.1563 201.721C17.9517 201.721 17.7812 201.535 17.7812 201.314V138.731C17.7812 138.511 17.9517 138.324 18.1563 138.324H108.126C108.331 138.324 108.501 138.511 108.501 138.731V201.857C108.501 202.077 108.348 202.264 108.126 202.264Z" fill="#053C5A"/>
<path d="M108.594 115H18.3662V145.283H108.594V115Z" fill="white"/>
<path d="M108.382 145.344H18.1543C17.9498 145.344 17.7793 145.175 17.7793 144.971V114.689C17.7793 114.485 17.9498 114.316 18.1543 114.316H108.382C108.586 114.316 108.757 114.485 108.757 114.689V144.971C108.757 145.175 108.586 145.344 108.382 145.344ZM18.5293 144.598H107.99V115.062H18.5293V144.598Z" fill="#053C5A"/>
<path d="M198.797 105.549H152.465V144.462H198.797V105.549Z" fill="#EBEBEB"/>
<path d="M198.798 144.818H152.465C152.26 144.818 152.09 144.648 152.09 144.445V105.549C152.09 105.345 152.26 105.176 152.465 105.176H198.798C199.002 105.176 199.173 105.345 199.173 105.549V144.462C199.173 144.665 199.002 144.818 198.798 144.818ZM152.84 144.072H198.422V105.922H152.84V144.072Z" fill="#053C5A"/>
<path d="M175.631 140.138C175.427 140.138 175.256 139.968 175.256 139.765V109.414C175.256 109.211 175.427 109.041 175.631 109.041C175.836 109.041 176.006 109.211 176.006 109.414V139.765C176.006 139.968 175.853 140.138 175.631 140.138Z" fill="#053C5A"/>
<path d="M198.797 162.941H152.465V201.854H198.797V162.941Z" fill="#EBEBEB"/>
<path d="M198.798 202.227H152.465C152.26 202.227 152.09 202.058 152.09 201.854V162.941C152.09 162.738 152.26 162.568 152.465 162.568H198.798C199.002 162.568 199.173 162.738 199.173 162.941V201.854C199.173 202.058 199.002 202.227 198.798 202.227ZM152.84 201.481H198.422V163.314H152.84V201.481Z" fill="#053C5A"/>
<path d="M175.631 197.531C175.427 197.531 175.256 197.362 175.256 197.158V166.808C175.256 166.604 175.427 166.435 175.631 166.435C175.836 166.435 176.006 166.604 176.006 166.808V197.158C176.006 197.362 175.853 197.531 175.631 197.531Z" fill="#053C5A"/>
</svg>
