<svg width="393" height="142" viewBox="0 0 393 142" fill="none" xmlns="http://www.w3.org/2000/svg">
<path d="M1.12155 88.5447C1.12155 92.1953 1.89839 95.7925 3.42329 99.1766L5.09206 102.854C7.42258 108.023 12.0549 112.02 17.7805 113.806L42.4379 121.666H361.604L382.118 115.831C387.643 114.259 391.584 109.755 392.102 104.426L392.965 95.2863C393.081 93.874 392.793 92.4351 392.131 91.1561C391.297 89.5839 391.009 87.7986 391.297 86.0399L388.937 71.2777C389.311 68.9861 388.017 66.7478 385.744 65.7619L385.255 65.6553C359.504 54.2773 331.969 48.2552 303.658 45.0576L291.775 43.7253L278.223 36.9837C202.927 -5.83723 94.6589 -10.2605 14.3854 18.118L2.67523 41.5936L5.09206 61.2054L1.95593 76.2073C1.38049 78.8986 1.09277 81.6432 1.09277 84.3878V88.5447H1.12155Z" fill="white"/>
<path d="M269.822 50.8415L97.7951 45.2191C82.6035 44.7394 67.1818 43.6736 51.9039 42.1014C50.005 41.9149 48.5664 40.3694 48.5664 38.5308V21.93C48.5664 18.7857 50.7531 16.0678 53.8892 15.3217C90.487 6.60829 128.782 4.58315 164.661 9.48611C204.625 14.9486 240.129 28.5117 270.196 49.8023C270.426 49.9621 270.513 50.2286 270.397 50.4684C270.34 50.6816 270.081 50.8415 269.822 50.8415ZM124.984 8.04721C101.679 8.04721 77.8562 10.7918 54.2345 16.4409C51.6738 17.0537 49.8611 19.292 49.8611 21.9034V38.5041C49.8611 39.7565 50.8106 40.7958 52.0478 40.929C67.2681 42.5011 82.6898 43.5403 97.8238 44.0466L267.837 49.6157C228.534 22.3564 178.069 8.04721 124.984 8.04721Z" fill="#053C5A"/>
<path d="M3.42434 39.0896C12.8903 37.2776 22.1836 39.889 27.4488 45.991C31.333 50.5209 31.8797 55.637 31.9373 58.0086C31.9373 58.0086 30.8439 63.4711 4.60398 61.3927L2.10083 41.168C2.90644 40.715 3.33802 39.9423 3.42434 39.0896Z" fill="white"/>
<path d="M15.3646 62.486C12.3436 62.486 8.77588 62.3528 4.57518 62.0064C4.28746 61.9798 4.02852 61.7666 3.99975 61.5001L1.49659 41.2754C1.46782 41.0623 1.58291 40.8491 1.75554 40.7159C2.33098 40.3428 2.67624 39.7299 2.79133 39.0105C2.8201 38.7707 3.0215 38.5575 3.28045 38.5042C13.0917 36.6389 22.5288 39.3569 27.9379 45.6188C31.592 49.8823 32.4839 54.7053 32.5702 58.0095C32.5702 58.0627 32.5702 58.0894 32.5702 58.1427C32.4839 58.649 31.1892 62.486 15.3646 62.486ZM5.20816 60.8873C28.5709 62.6726 31.1316 58.4091 31.333 57.9561C31.2179 54.8385 30.3835 50.3352 26.9597 46.3649C21.9246 40.5293 13.1492 37.9713 3.97097 39.5967C3.79834 40.3428 3.36676 41.009 2.79133 41.462L5.20816 60.8873Z" fill="#053C5A"/>
<path d="M29.2327 60.1145C26.7295 60.9406 22.0685 62.6725 4.63272 61.4202L3.79834 54.5454C3.79834 54.5454 2.27343 45.5122 10.8474 48.923C20.3134 52.6801 29.2327 60.1145 29.2327 60.1145Z" fill="white"/>
<path d="M352.627 65.0683C352.253 64.8285 352.397 64.2955 352.857 64.2423C355.217 63.9491 357.605 63.4428 363.647 63.9225C369.862 64.4288 379.184 67.2799 383.097 69.1985C384.133 69.7048 384.161 70.7973 384.161 71.8898C384.161 72.3694 384.046 73.382 383.902 73.8616C383.557 75.114 382.118 75.8335 380.737 75.8335H372.365C367.79 75.8335 360.367 74.5011 356.684 71.9964L352.627 65.0683Z" fill="white"/>
<path d="M380.766 76.4473H369.402C364.683 76.4473 360.166 75.0883 356.339 72.5036C356.253 72.4503 356.195 72.397 356.167 72.3171L352.138 65.4956C351.851 65.2291 351.736 64.856 351.822 64.483C351.937 64.0566 352.311 63.7635 352.8 63.6836C353.117 63.6569 353.433 63.6036 353.75 63.5503C355.936 63.2572 358.439 62.9375 363.734 63.3638C370.178 63.8701 379.501 66.8012 383.356 68.6665L383.442 68.6931C384.852 69.3859 385.025 70.5051 384.852 71.9707L384.593 73.9692C384.449 75.5679 382.522 76.4473 380.766 76.4473ZM357.202 71.6242C360.77 74.0224 364.999 75.2748 369.402 75.2748H380.766C381.946 75.2748 383.241 74.7419 383.298 73.8626L383.557 71.8374C383.73 70.4518 383.471 70.0521 382.838 69.7324L382.752 69.7057C379.011 67.8938 369.919 65.0426 363.618 64.5363C358.468 64.1099 356.051 64.4297 353.922 64.7228C353.663 64.7494 353.433 64.7761 353.203 64.8294L357.202 71.6242Z" fill="#053C5A"/>
<path d="M193.375 56.9705L170.128 56.4376C168.89 56.4109 167.596 56.3043 166.272 56.0911C165.956 56.0378 165.726 55.798 165.726 55.5049V52.3606C165.726 52.2007 165.783 52.0409 165.927 51.9343C166.042 51.8277 166.215 51.7744 166.387 51.7744L193.404 52.3606C193.749 52.3606 194.037 52.6271 194.037 52.9469V56.331C194.037 56.4908 193.98 56.6507 193.836 56.7573C193.692 56.9172 193.548 56.9705 193.375 56.9705ZM166.992 55.0253C168.056 55.1585 169.121 55.2385 170.156 55.2651L192.742 55.7714V53.5597L166.992 53.0001V55.0253Z" fill="#053C5A"/>
<path d="M378.551 105.732C377.487 105.732 376.509 105.146 376.077 104.214C375.041 101.922 373.257 97.4187 372.797 92.8622C372.739 92.1694 372.998 91.4499 373.516 90.9436C374.063 90.4107 374.811 90.1442 375.588 90.1709C379.012 90.3308 383.5 90.6505 385.485 91.4233C387.24 92.0895 388.334 93.7948 388.132 95.5268C387.183 103.707 381.371 105.386 378.897 105.706C378.81 105.706 378.695 105.732 378.551 105.732ZM374.092 92.7556C374.523 97.1523 376.25 101.549 377.257 103.761C377.516 104.32 378.12 104.64 378.753 104.56C381.457 104.187 386.09 102.508 386.895 95.4203C387.039 94.1945 386.262 93.0221 385.025 92.5424C383.615 92.0095 380.249 91.5832 375.559 91.37C375.128 91.3433 374.753 91.5032 374.466 91.7697C374.178 92.0095 374.034 92.3826 374.092 92.7556Z" fill="#053C5A"/>
<path d="M270.312 105.333C270.312 83.1369 289.733 65.1505 313.7 65.1505C337.666 65.1505 357.087 83.1369 357.087 105.333C357.087 111.116 355.764 116.632 353.376 121.614L352.685 121.801H274.109C271.664 116.765 270.312 111.196 270.312 105.333Z" fill="white"/>
<path d="M352.686 122.387H274.11C273.851 122.387 273.62 122.254 273.534 122.041C270.973 116.765 269.679 111.143 269.679 105.334C269.679 82.8441 289.445 64.5646 313.7 64.5646C337.983 64.5646 357.721 82.8707 357.721 105.334C357.721 111.089 356.455 116.632 353.951 121.855C353.865 122.014 353.721 122.121 353.549 122.174L352.858 122.361C352.829 122.387 352.772 122.387 352.686 122.387ZM274.512 121.215H352.599L352.944 121.108C355.304 116.126 356.483 110.796 356.483 105.307C356.483 83.457 337.293 65.7104 313.728 65.7104C290.136 65.7104 270.973 83.4836 270.973 105.307C270.945 110.85 272.153 116.205 274.512 121.215Z" fill="#053C5A"/>
<path d="M34.6127 115.028H22.7874C21.9531 111.911 21.5215 108.66 21.5215 105.329C21.5215 83.1324 40.9713 65.1193 64.9382 65.1193C88.9052 65.1193 108.355 83.1324 108.355 105.329C108.355 111.191 107.003 116.787 104.557 121.796H34.6415V115.028H34.6127Z" fill="white"/>
<path d="M104.528 122.385H34.6123C34.2671 122.385 33.9793 122.119 33.9793 121.799V115.617H22.7583C22.4706 115.617 22.2117 115.43 22.1541 115.164C21.291 111.966 20.8594 108.636 20.8594 105.305C20.8594 82.8151 40.6256 64.509 64.9091 64.509C89.1925 64.509 108.959 82.8151 108.959 105.305C108.959 111.114 107.664 116.763 105.103 122.012C105.017 122.252 104.787 122.385 104.528 122.385ZM35.2453 121.213H104.096C106.484 116.203 107.664 110.847 107.664 105.331C107.664 83.4813 88.4732 65.7081 64.8803 65.7081C41.2874 65.7081 22.0966 83.4813 22.0966 105.331C22.0966 108.396 22.4706 111.487 23.2474 114.444H34.5836C34.9288 114.444 35.2165 114.711 35.2165 115.031V121.213H35.2453Z" fill="#053C5A"/>
<path d="M265.391 46.0153L258.774 38.6342C257.853 37.595 256.472 37.0088 255.005 37.0088H249.135C246.632 37.0088 244.532 38.7408 244.273 41.0324L243.841 44.7096C243.726 45.6956 243.956 46.7081 244.532 47.5608C245.395 48.8931 246.949 49.7192 248.646 49.7192C254.947 49.7991 270.081 49.9324 269.765 49.4794C269.448 49.0264 267.146 47.3477 266.168 46.6548C265.852 46.495 265.622 46.2818 265.391 46.0153Z" fill="white"/>
<path d="M243.812 44.736L244.244 41.0588C244.532 38.7672 246.603 37.0352 249.107 37.0352H254.976C256.443 37.0352 257.824 37.6481 258.745 38.6606L265.363 46.0417C265.391 46.015 253.019 44.5761 243.812 44.736Z" fill="white"/>
<path d="M265.391 46.0163L258.774 38.6352C257.853 37.596 256.472 37.0098 255.005 37.0098H249.135C246.632 37.0098 244.532 38.7418 244.273 41.0334L243.841 44.7106C243.726 45.6965 243.956 46.7091 244.532 47.5618C245.395 48.8941 246.949 49.7202 248.646 49.7202C254.947 49.8001 270.081 49.9333 269.765 49.4803C269.448 49.0274 267.146 47.3486 266.168 46.6558C265.852 46.4959 265.622 46.2828 265.391 46.0163Z" fill="white"/>
<path d="M260.759 50.4399C257.767 50.4399 253.825 50.4132 248.617 50.3333C246.718 50.3066 244.963 49.4007 243.985 47.8818C243.352 46.9225 243.064 45.7768 243.208 44.6576L243.64 40.9804C243.956 38.369 246.316 36.4238 249.135 36.4238H255.005C256.645 36.4238 258.198 37.09 259.263 38.2624L265.88 45.6435C266.082 45.8567 266.312 46.0698 266.542 46.2297C268.729 47.8019 269.995 48.8145 270.254 49.1875C270.398 49.374 270.398 49.6405 270.283 49.827C270.11 50.1734 269.937 50.4399 260.759 50.4399ZM249.135 37.5963C246.949 37.5963 245.136 39.1151 244.906 41.1136L244.474 44.7908C244.359 45.6435 244.589 46.5495 245.078 47.2689C245.855 48.4414 247.179 49.1342 248.646 49.1608C260.097 49.2941 266.111 49.2408 268.412 49.1342C267.837 48.6812 266.974 48.015 265.765 47.1623C265.449 46.9225 265.161 46.6827 264.902 46.3896L258.285 39.0085C257.479 38.1025 256.271 37.5963 255.005 37.5963H249.135Z" fill="#053C5A"/>
<path d="M355.764 122.386H33.9796C32.3683 122.386 31.5915 122.333 31.4189 121.72C31.2462 121.161 31.8217 120.841 32.3971 120.521C32.6848 120.361 33.3466 119.988 33.4329 119.802C33.4329 119.802 33.2027 119.535 32.0806 119.189L17.0617 114.499C11.1635 112.66 6.38735 108.53 3.99929 103.201L2.33052 99.5236C0.77684 96.0596 0 92.409 0 88.6785V84.5217C0 81.7504 0.287719 78.9525 0.863156 76.2079L3.97052 61.3126L1.66877 42.7399C1.40982 40.7148 11.7101 18.2518 14.0407 17.3991C14.2996 17.3192 36.3101 10.7109 43.8483 9.27194C135.573 -8.42134 203.388 -0.507332 277.907 36.6112L291.344 43.2995L303.112 44.6318C332.344 47.936 355.534 52.1995 380.709 63.3377L386.866 65.6559C389.283 66.7218 390.866 81.6172 391.297 86.1471C391.297 86.2004 391.297 86.227 391.297 86.2803C391.038 87.9058 391.297 89.5579 392.074 91.0501C392.793 92.4357 393.11 93.9545 392.966 95.5L392.103 104.64C391.585 110.236 387.499 114.925 381.687 116.551L366.237 120.947C362.899 121.88 359.361 122.386 355.764 122.386ZM33.6055 121.214C33.7206 121.214 33.8357 121.214 33.9796 121.214H355.764C359.217 121.214 362.641 120.734 365.949 119.802L381.4 115.405C386.694 113.886 390.434 109.623 390.923 104.507L391.786 95.3668C391.901 94.0611 391.614 92.7288 391.01 91.5297C390.118 89.851 389.801 87.9857 390.089 86.1471C389.254 77.3005 387.615 67.388 386.406 66.6952L380.249 64.3769C355.189 53.3186 332.114 49.0552 302.996 45.7777L291.114 44.4453C291.027 44.4453 290.97 44.4187 290.883 44.392L277.332 37.6505C203.129 0.638477 135.544 -7.24889 44.136 10.3911C36.828 11.8034 15.6807 18.1186 14.5298 18.465C12.8322 19.5575 2.79087 40.3951 2.93473 42.5801L5.23648 61.2326C5.23648 61.2859 5.23648 61.3392 5.23648 61.4191L2.10035 76.4211C1.55368 79.0858 1.26596 81.8037 1.26596 84.495V88.6519C1.26596 92.2492 2.01403 95.7399 3.51017 99.044L5.17893 102.721C7.42314 107.731 11.9115 111.621 17.4933 113.353L32.5122 118.043C33.4904 118.336 34.6125 118.816 34.7276 119.668C34.7852 120.361 34.2097 120.841 33.6055 121.214Z" fill="#053C5A"/>
<path d="M64.9095 141.198C86.2978 141.198 103.636 125.14 103.636 105.332C103.636 85.5237 86.2978 69.4658 64.9095 69.4658C43.5213 69.4658 26.1826 85.5237 26.1826 105.332C26.1826 125.14 43.5213 141.198 64.9095 141.198Z" fill="#053C5A"/>
<path d="M64.9096 129.448C79.2903 129.448 90.9482 118.651 90.9482 105.333C90.9482 92.0146 79.2903 81.2179 64.9096 81.2179C50.5289 81.2179 38.8711 92.0146 38.8711 105.333C38.8711 118.651 50.5289 129.448 64.9096 129.448Z" fill="white"/>
<path d="M64.9096 130.035C50.2071 130.035 38.238 118.95 38.238 105.333C38.238 91.7169 50.2071 80.632 64.9096 80.632C79.612 80.632 91.5811 91.7169 91.5811 105.333C91.6098 118.95 79.6407 130.035 64.9096 130.035ZM64.9096 81.7777C50.8977 81.7777 39.504 92.3298 39.504 105.307C39.504 118.283 50.8977 128.835 64.9096 128.835C78.9215 128.835 90.3151 118.283 90.3151 105.307C90.3151 92.3298 78.9215 81.7777 64.9096 81.7777Z" fill="#053C5A"/>
<path d="M64.9093 124.703C76.4616 124.703 85.8265 116.03 85.8265 105.331C85.8265 94.6321 76.4616 85.959 64.9093 85.959C53.3571 85.959 43.9922 94.6321 43.9922 105.331C43.9922 116.03 53.3571 124.703 64.9093 124.703Z" fill="white"/>
<path d="M64.9095 125.264C53.0267 125.264 43.3594 116.311 43.3594 105.306C43.3594 94.3009 53.0267 85.3477 64.9095 85.3477C76.7923 85.3477 86.4596 94.3009 86.4596 105.306C86.4596 116.311 76.7923 125.264 64.9095 125.264ZM64.9095 86.5467C53.746 86.5467 44.6541 94.9671 44.6541 105.306C44.6541 115.645 53.746 124.065 64.9095 124.065C76.073 124.065 85.1649 115.645 85.1649 105.306C85.1649 94.9671 76.1018 86.5467 64.9095 86.5467Z" fill="#053C5A"/>
<path d="M313.7 141.198C335.088 141.198 352.427 125.14 352.427 105.332C352.427 85.5237 335.088 69.4658 313.7 69.4658C292.311 69.4658 274.973 85.5237 274.973 105.332C274.973 125.14 292.311 141.198 313.7 141.198Z" fill="#053C5A"/>
<path d="M313.699 129.448C328.08 129.448 339.738 118.651 339.738 105.333C339.738 92.0146 328.08 81.2179 313.699 81.2179C299.319 81.2179 287.661 92.0146 287.661 105.333C287.661 118.651 299.319 129.448 313.699 129.448Z" fill="white"/>
<path d="M313.7 130.035C298.997 130.035 287.028 118.95 287.028 105.333C287.028 91.7169 298.997 80.632 313.7 80.632C328.402 80.632 340.371 91.7169 340.371 105.333C340.4 118.95 328.431 130.035 313.7 130.035ZM313.7 81.7777C299.688 81.7777 288.294 92.3298 288.294 105.307C288.294 118.283 299.688 128.835 313.7 128.835C327.712 128.835 339.105 118.283 339.105 105.307C339.105 92.3298 327.712 81.7777 313.7 81.7777Z" fill="#053C5A"/>
<path d="M313.699 124.703C325.252 124.703 334.617 116.03 334.617 105.331C334.617 94.6321 325.252 85.959 313.699 85.959C302.147 85.959 292.782 94.6321 292.782 105.331C292.782 116.03 302.147 124.703 313.699 124.703Z" fill="white"/>
<path d="M313.7 125.264C301.817 125.264 292.149 116.311 292.149 105.306C292.149 94.3009 301.817 85.3477 313.7 85.3477C325.582 85.3477 335.25 94.3009 335.25 105.306C335.25 116.311 325.582 125.264 313.7 125.264ZM313.7 86.5467C302.536 86.5467 293.444 94.9671 293.444 105.306C293.444 115.645 302.536 124.065 313.7 124.065C324.863 124.065 333.955 115.645 333.955 105.306C333.955 94.9671 324.892 86.5467 313.7 86.5467Z" fill="#053C5A"/>
</svg>
