<svg width="18" height="18" viewBox="0 0 18 18" fill="none" xmlns="http://www.w3.org/2000/svg">
<path d="M3 9.55872L3.23173 12.1656C3.31271 13.0767 4.12508 13.7775 5.10025 13.7775H12.8998C13.8749 13.7775 14.6873 13.0767 14.7683 12.1656L15 9.55872M3 9.55872H15M3 9.55872C2.58579 9.55872 2.25 9.24392 2.25 8.85559V8.67981C2.25 8.1944 2.66973 7.8009 3.1875 7.8009H14.8125C15.3303 7.8009 15.75 8.1944 15.75 8.67981V8.85559C15.75 9.24392 15.4142 9.55872 15 9.55872M10.5 3.93372H10.4286C9.63963 3.93372 9.00004 4.53333 9.00004 5.273C9.00004 5.30998 9.03202 5.33997 9.07147 5.33997H11.9286C11.9681 5.33997 12 5.30998 12 5.273C12 4.53333 11.3604 3.93372 10.5715 3.93372H10.5ZM10.5 3.93372C10.5 3.15707 11.1716 2.52747 12 2.52747C12.8285 2.52747 13.5 3.15707 13.5 3.93372V7.8009M5.25 15.465H6.74998M11.25 15.465H12.75" stroke="#6A6D6F" stroke-width="1.16163" stroke-linecap="round"/>
</svg>
