<svg width="18" height="18" viewBox="0 0 18 18" fill="none" xmlns="http://www.w3.org/2000/svg">
<path d="M10.0867 10.3961C10.1509 10.6353 10.1343 10.889 10.0395 11.1178C9.94474 11.3467 9.77713 11.5378 9.56265 11.6616C9.34818 11.7855 9.09883 11.8351 8.85329 11.8028C8.60775 11.7704 8.37973 11.658 8.20461 11.4829C8.02949 11.3078 7.91705 11.0798 7.88473 10.8342C7.85241 10.5887 7.90202 10.3393 8.02586 10.1248C8.14969 9.91037 8.34084 9.74276 8.56966 9.648C8.79847 9.55324 9.05216 9.53663 9.29137 9.60075L10.2898 8.60231C10.3959 8.49985 10.538 8.44315 10.6855 8.44443C10.833 8.44572 10.974 8.50487 11.0783 8.60916C11.1826 8.71346 11.2418 8.85454 11.2431 9.00202C11.2443 9.14951 11.1877 9.2916 11.0852 9.39769L10.0867 10.3961ZM9 5.0625C9.14918 5.0625 9.29226 5.12176 9.39775 5.22725C9.50324 5.33274 9.5625 5.47582 9.5625 5.625V6.1875C9.5625 6.33668 9.50324 6.47976 9.39775 6.58525C9.29226 6.69074 9.14918 6.75 9 6.75C8.85082 6.75 8.70774 6.69074 8.60225 6.58525C8.49676 6.47976 8.4375 6.33668 8.4375 6.1875V5.625C8.4375 5.47582 8.49676 5.33274 8.60225 5.22725C8.70774 5.12176 8.85082 5.0625 9 5.0625ZM14.0625 11.25C14.2117 11.25 14.3548 11.1907 14.4602 11.0852C14.5657 10.9798 14.625 10.8367 14.625 10.6875C14.625 10.5383 14.5657 10.3952 14.4602 10.2898C14.3548 10.1843 14.2117 10.125 14.0625 10.125H13.5C13.3508 10.125 13.2077 10.1843 13.1023 10.2898C12.9968 10.3952 12.9375 10.5383 12.9375 10.6875C12.9375 10.8367 12.9968 10.9798 13.1023 11.0852C13.2077 11.1907 13.3508 11.25 13.5 11.25H14.0625ZM3.375 10.6875C3.375 10.5383 3.43426 10.3952 3.53975 10.2898C3.64524 10.1843 3.78832 10.125 3.9375 10.125H4.5C4.64918 10.125 4.79226 10.1843 4.89775 10.2898C5.00324 10.3952 5.0625 10.5383 5.0625 10.6875C5.0625 10.8367 5.00324 10.9798 4.89775 11.0852C4.79226 11.1907 4.64918 11.25 4.5 11.25H3.9375C3.78832 11.25 3.64524 11.1907 3.53975 11.0852C3.43426 10.9798 3.375 10.8367 3.375 10.6875ZM12.4914 7.99144L12.8891 7.59375C12.9916 7.48766 13.0483 7.34557 13.047 7.19809C13.0457 7.0506 12.9866 6.90952 12.8823 6.80523C12.778 6.70094 12.6369 6.64178 12.4894 6.6405C12.3419 6.63921 12.1998 6.69591 12.0938 6.79838L11.6961 7.19606C11.5936 7.30215 11.5369 7.44424 11.5382 7.59173C11.5395 7.73921 11.5986 7.88029 11.7029 7.98459C11.8072 8.08888 11.9483 8.14803 12.0958 8.14932C12.2433 8.1506 12.3853 8.0939 12.4914 7.99144ZM6.13912 7.99144C6.24458 7.88595 6.30382 7.7429 6.30382 7.59375C6.30382 7.4446 6.24458 7.30155 6.13912 7.19606L5.74144 6.79838C5.63535 6.69591 5.49326 6.63921 5.34577 6.6405C5.19829 6.64178 5.05721 6.70094 4.95291 6.80523C4.84862 6.90952 4.78947 7.0506 4.78818 7.19809C4.7869 7.34557 4.8436 7.48766 4.94606 7.59375L5.34375 7.99144C5.44923 8.09689 5.59228 8.15613 5.74144 8.15613C5.89059 8.15613 6.03364 8.09689 6.13912 7.99144Z" fill="#6A6D6F"/>
<path fill-rule="evenodd" clip-rule="evenodd" d="M9 3.375C4.96125 3.375 1.6875 6.64875 1.6875 10.6875C1.6875 11.6353 1.86806 12.5426 2.19712 13.3751C2.27942 13.5794 2.42128 13.7542 2.60426 13.8768C2.78724 13.9994 3.00288 14.0641 3.22312 14.0625H14.778C15.2111 14.0625 15.6313 13.8099 15.8034 13.3751C16.1325 12.5426 16.3131 11.6353 16.3131 10.6875C16.3131 6.64875 13.0387 3.375 9 3.375ZM2.8125 10.6875C2.8125 7.27031 5.58281 4.5 9 4.5C12.4172 4.5 15.1875 7.27031 15.1875 10.6875C15.1875 11.4823 15.0379 12.2411 14.7656 12.9375H3.23438C2.95464 12.2204 2.81156 11.4572 2.8125 10.6875Z" fill="#6A6D6F"/>
</svg>
