<svg width="18" height="18" viewBox="0 0 18 18" fill="none" xmlns="http://www.w3.org/2000/svg">
<path d="M16.2675 2.0327C16.2075 1.8977 16.1025 1.78517 15.96 1.72517C15.8925 1.69517 15.8175 1.68018 15.7425 1.68018H12.7425C12.435 1.68018 12.18 1.93518 12.18 2.24268C12.18 2.55018 12.435 2.80518 12.7425 2.80518H14.385L10.845 6.3452C10.6275 6.5627 10.6275 6.9227 10.845 7.1402C10.9575 7.2527 11.1 7.30518 11.2425 7.30518C11.385 7.30518 11.5275 7.2527 11.64 7.1402L15.18 3.60017V5.25018C15.18 5.55768 15.435 5.81268 15.7425 5.81268C16.05 5.81268 16.305 5.55768 16.305 5.25018V2.25018C16.3125 2.17518 16.2975 2.1077 16.2675 2.0327Z" fill="#6A6D6F"/>
<path d="M6.35248 10.8527L2.8125 14.3927V12.7502C2.8125 12.4427 2.5575 12.1877 2.25 12.1877C1.9425 12.1877 1.6875 12.4427 1.6875 12.7502V15.7502C1.6875 15.8252 1.7025 15.8927 1.7325 15.9677C1.7925 16.1027 1.89748 16.2152 2.03998 16.2752C2.10748 16.3052 2.18251 16.3202 2.25751 16.3202H5.25751C5.56501 16.3202 5.82001 16.0652 5.82001 15.7577C5.82001 15.4502 5.56501 15.1952 5.25751 15.1952H3.61501L7.15498 11.6552C7.37248 11.4377 7.37248 11.0777 7.15498 10.8602C6.93748 10.6427 6.56998 10.6352 6.35248 10.8527Z" fill="#6A6D6F"/>
<path d="M1.65001 11.0626C1.38751 11.0626 1.15498 10.8751 1.10248 10.6126C0.997478 10.0876 0.9375 9.54012 0.9375 9.00012C0.9375 4.55262 4.5525 0.937622 9 0.937622C9.5475 0.937622 10.095 0.9901 10.6275 1.1026C10.935 1.1626 11.13 1.4626 11.07 1.7626C11.01 2.0701 10.7025 2.25762 10.41 2.20512C9.9525 2.11512 9.48001 2.06262 9.00751 2.06262C5.18251 2.06262 2.07001 5.17512 2.07001 9.00012C2.07001 9.46512 2.11501 9.9376 2.21251 10.3876C2.27251 10.6951 2.07749 10.9876 1.76999 11.0476C1.72499 11.0626 1.68751 11.0626 1.65001 11.0626Z" fill="#6A6D6F"/>
<path d="M9.00003 17.0625C8.45253 17.0625 7.90504 17.01 7.37254 16.8975C7.06504 16.8375 6.87002 16.5375 6.93002 16.2375C6.99002 15.93 7.29752 15.7425 7.59002 15.795C8.04752 15.885 8.52002 15.9375 8.99252 15.9375C12.8175 15.9375 15.93 12.825 15.93 8.99997C15.93 8.53497 15.885 8.06999 15.795 7.61249C15.735 7.30499 15.93 7.01248 16.2375 6.95248C16.545 6.89248 16.8376 7.08746 16.8976 7.39496C17.0026 7.91996 17.055 8.45997 17.055 8.99997C17.0625 13.4475 13.4475 17.0625 9.00003 17.0625Z" fill="#6A6D6F"/>
</svg>
